<svg id="PRINT" xmlns="http://www.w3.org/2000/svg" viewBox="0 0 1259.68 694.5"><defs><style>.cls-1{fill:#fff;}.cls-2{fill:#be1e2d;}</style></defs><title>certified-rockstar-developer</title><path class="cls-1" d="M447.61,147.4v7.49a12.73,12.73,0,0,0-5.36-1.57,8.72,8.72,0,0,0-5.09,1.47,10.59,10.59,0,0,0-3.5,4.5,28.57,28.57,0,0,0-2,7.71,78.19,78.19,0,0,0-.67,11q0,22.91,11.74,22.9a12.61,12.61,0,0,0,4.92-1.28v7.65a13.53,13.53,0,0,1-6.73,1.68q-18.76,0-18.77-30.67,0-16.58,4.58-24.67t14-8.08A14.3,14.3,0,0,1,447.61,147.4Zm31.61-1h22.14v7H487.55V173H499.8v7H487.55v21.1h13.81v7.05H479.22Zm54.39,0h11q6.81,0,10.13,3.24,4.2,4.2,4.2,12.85,0,6.64-2.22,10.67a9.52,9.52,0,0,1-6.35,5l11.37,30.07h-8.44L541.94,178v30.27h-8.33Zm8.33,27.38c3.22,0,5.51-.74,6.84-2.24s2-4,2-7.57a24.78,24.78,0,0,0-.42-4.92,8.8,8.8,0,0,0-1.32-3.32,5.27,5.27,0,0,0-2.32-1.89,8.69,8.69,0,0,0-3.38-.6h-1.4Zm46.7-27.38h27.1v7.28h-9.33v54.54h-8.16V153.68h-9.61Zm56.31,0h8.33v61.82H645Zm42.45,0h22.27v7H695.73V173h12.58V180H695.73v28.19H687.4Zm53.27,0H749v61.82h-8.33Zm42.46,0h22.14v7H791.46V173h12.25v7H791.46v21.1h13.81v7.05H783.13Zm54.39,0h10.25a25.66,25.66,0,0,1,7.89,1,12.52,12.52,0,0,1,5.28,3.56,22.43,22.43,0,0,1,5,10q1.47,6,1.48,17.1a69.56,69.56,0,0,1-1.64,16.65,18.2,18.2,0,0,1-5.29,9.41q-4.51,4.05-16.21,4.05h-6.73Zm8.33,54.53q7.6,0,10.17-4.6t2.64-17.9q0-14.3-2.52-19.66t-9.25-5.37h-1ZM405.49,479.4h10.25a25.66,25.66,0,0,1,7.89,1,12.52,12.52,0,0,1,5.28,3.56,22.33,22.33,0,0,1,5,10q1.47,6,1.48,17.1a69.56,69.56,0,0,1-1.64,16.65,18.2,18.2,0,0,1-5.29,9.41q-4.51,4.05-16.21,4.05h-6.73Zm8.33,54.53q7.6,0,10.17-4.6t2.64-17.9q0-14.3-2.52-19.66t-9.25-5.37h-1Zm54.43-54.53h22.14v7H476.58V506h12.25v7.05H476.58v21.1h13.81v7.05H468.25Zm49.46,0h8.21l3.72,22.82.64,4.12,1.33,9c.21,1.52.4,2.91.58,4.17s.32,2.39.46,3.4l.4,3c.08-.61.14-1.16.2-1.64s.1-.88.16-1.2l1.08-7.17,1.4-9.41c.13-.85.26-1.64.38-2.36s.23-1.36.34-1.92l4-22.82h7.77l-12.13,61.82h-6.61Zm59.84,0h22.14v7H585.87V506h12.26v7.05H585.87v21.1h13.82v7.05H577.55Zm54.38,0h8.33v54.77h13.62v7.05h-22Zm82.7,32.43q0,16.38-3.64,23.26T698.78,542q-9,0-12.7-7.41-3.65-7.25-3.64-25.74,0-16.5,3.6-23.35t12.34-6.88q7.75,0,11.53,5.32,2.48,3.57,3.6,10.13A105.16,105.16,0,0,1,714.63,511.83Zm-8.73.88q0-16.05-1.44-21.3c-1-3.52-2.92-5.29-5.88-5.29s-4.94,1.62-5.93,4.85-1.44,9.8-1.44,19.62q0,13.57,1.52,18.82,1.56,5,5.85,5t5.76-4.64Q705.9,525.13,705.9,512.71Zm41.58-33.31h11q7.93,0,11.53,4t3.6,12.81q0,12.35-7.24,15.94-3.65,1.64-10.53,1.64v27.43h-8.33Zm8.33,27.26c3.44,0,5.82-.69,7.12-2.08s2-3.92,2-7.53-.64-6.37-1.93-8.08-3.29-2.57-6-2.57h-1.16Zm48.78-27.26h22.14v7H812.92V506h12.25v7.05H812.92v21.1h13.81v7.05H804.59Zm54.39,0h11q6.81,0,10.13,3.24,4.2,4.2,4.2,12.85,0,6.64-2.22,10.67a9.5,9.5,0,0,1-6.34,5l11.37,30.07h-8.45L867.31,511v30.27H859Zm8.33,27.38c3.23,0,5.51-.74,6.84-2.24s2-4,2-7.57a24.78,24.78,0,0,0-.42-4.92,8.64,8.64,0,0,0-1.33-3.32,5.22,5.22,0,0,0-2.32-1.89,8.62,8.62,0,0,0-3.38-.6h-1.4Z" transform="translate(-17.58 -4.75)"/><path class="cls-2" d="M1257.9,320l-66.46-34.83V233.36a12,12,0,0,0-12-12H1069.67L664.19,8.88a36.11,36.11,0,0,0-33.54,0L225.18,221.36H115.41a12,12,0,0,0-12,12v51.81L36.94,320a36.13,36.13,0,0,0,0,64l66.47,34.83v34.38a12,12,0,0,0,12,12h76.51L395.51,571.9H265.15a14.52,14.52,0,0,0-14.5,14.5v62.38a14.52,14.52,0,0,0,14.5,14.5H569.88l60.77,31.84a36.11,36.11,0,0,0,33.54,0L725,663.28h299.38a14.52,14.52,0,0,0,14.5-14.5V586.4a14.52,14.52,0,0,0-14.5-14.5h-125l203.59-106.68h76.51a12,12,0,0,0,12-12V418.84L1257.9,384a36.13,36.13,0,0,0,0-64ZM103.41,401.9,43.9,370.72a21.14,21.14,0,0,1,0-37.44l59.51-31.18ZM637.61,22.17a21.09,21.09,0,0,1,19.62,0l380.12,199.19H257.49Zm21.94,664.09a26.1,26.1,0,0,1-24.26,0l-43.86-23h112ZM1024.34,576.9a9.52,9.52,0,0,1,9.5,9.5v62.38a9.52,9.52,0,0,1-9.5,9.5H265.15a9.52,9.52,0,0,1-9.5-9.5V586.4a9.52,9.52,0,0,1,9.5-9.5Zm-146.55-5H417.05L213.46,465.22h867.92Zm301.65-111.68h-1064a7,7,0,0,1-7-7V233.36a7,7,0,0,1,7-7h1064a7,7,0,0,1,7,7v41h0V423.71h0v29.52A7,7,0,0,1,1179.44,460.22Zm71.5-89.5-59.5,31.18h0V302.11h0l59.5,31.18A21.13,21.13,0,0,1,1250.94,370.72Z" transform="translate(-17.58 -4.75)"/><path class="cls-1" d="M427.83,571.9H417.05L213.47,465.22h10.77ZM43.91,370.72a21.13,21.13,0,0,1,0-37.43l59.5-31.18v-5.65l-61.82,32.4a26.12,26.12,0,0,0,0,46.29l61.82,32.4V401.9ZM692.65,663.28h10.77l-43.87,23a26.18,26.18,0,0,1-24.26,0l-43.86-23H602.2l35.42,18.56a20.54,20.54,0,0,0,2.35,1,16.12,16.12,0,0,0,1.62.53l.41.12c.55.14,1.1.27,1.65.37s1.11.17,1.67.23l.42,0c.56,0,1.12.07,1.68.07s1.13,0,1.69-.07l.42,0c.55-.06,1.11-.13,1.67-.23s1.1-.23,1.65-.37l.41-.12a17,17,0,0,0,1.62-.53,20.54,20.54,0,0,0,2.35-1ZM877.8,571.9H867l203.59-106.68h10.77ZM257.5,221.36H246.72L635.29,17.74a26.18,26.18,0,0,1,24.26,0l388.57,203.62h-10.77L657.23,22.17a21.15,21.15,0,0,0-19.61,0ZM1267.27,352a26,26,0,0,1-14,23.14l-61.82,32.4V401.9l59.5-31.18a21.13,21.13,0,0,0,0-37.43l-59.5-31.18v-5.65l61.82,32.4A26,26,0,0,1,1267.27,352Z" transform="translate(-17.58 -4.75)"/><path class="cls-2" d="M652.91,259.88H596.66l-23.91,23.9v-23.9H563l.29-.29-27.43.29H493a84.14,84.14,0,0,0-63.32,28.62,84.38,84.38,0,0,0-148.4,54.94v1.06A84.43,84.43,0,0,0,285,369.54a83.45,83.45,0,0,0,4.29,11c.62,1.23-.16,1.68-1.17.67L265,358a64.18,64.18,0,0,0,10.66-35.14,63.3,63.3,0,0,0-63.27-63.29H149.06V428.34h42.18v-84h.41l84.26,84h59.37q-3.57-3.55-7.13-7.13c-2.31-2.12-2.31-2.12.46-.86a84.46,84.46,0,0,0,100.78-20.61,84.22,84.22,0,0,0,63.55,28.89h.76l27.42-.29V386.15l-27.42.29h-.78a42.19,42.19,0,0,1,0-84.38h.78l27.42-.28.07-.07h9.23l-.56.55V428.63h42.89v-52l52,52H681L582.6,330.19ZM212.41,344H191.24V301.78h21.1a21.09,21.09,0,0,1,.07,42.18Zm153.21,42.2a42.19,42.19,0,1,1,42.16-43.81A42.2,42.2,0,0,1,365.62,386.16Zm788.22,42.1-71.37-70.21s0,0,0-.06a63.29,63.29,0,0,0-52.64-98.4H966.58a.05.05,0,0,0-.05.05V428.29a0,0,0,0,0,.05,0h42.09a.05.05,0,0,0,.05,0V344.37h.4l85.73,84h59A0,0,0,0,0,1153.84,428.26Zm-124-84.29h-21.11a0,0,0,0,1,0-.05V301.83a.05.05,0,0,1,0-.05h20.53c11.46,0,21.25,8.91,21.63,20.36A21.09,21.09,0,0,1,1029.88,344Zm-122.3-32.09,52.29-52.29V428.34H917.69V386.15l-.27-24.53-67.57,66.72H789.53l118-116.5ZM783,428.63V302.06H681.54l-.16.1a11,11,0,0,0,3.17,21l40.28,7.12c26.45,4,44.71,28.89,40.92,55.83-3.77,26.77-22,42.52-53.67,42.52H688.61l-42.19-42.19h65.51c5.43,0,9.62-3.53,9.57-9.87,0-5.49-3.44-10.34-8.82-11.22l-40.38-7.07h0c-26.72-2.81-46.07-27.13-43.21-54.31s26.84-46.93,53.56-44.12l.29,0H951.74l-42.18,42.18H825.71l-.53,84.38Z" transform="translate(-17.58 -4.75)"/><path class="cls-1" d="M365.61,259.07h0a84.16,84.16,0,0,1,64,29.42A84.14,84.14,0,0,1,493,259.87h42.92l27.43-.29-.29.29h9.73v23.9l23.91-23.9h56.25L582.6,330.19,681,428.63H624.78l-52-52v52H529.86V302.26l.56-.55h-9.23l-.07.07-27.42.28h-.78a42.19,42.19,0,0,0,0,84.38h.78l27.42-.29v42.19l-27.42.29h-.76a84.22,84.22,0,0,1-63.55-28.89,84.12,84.12,0,0,1-63.75,29.13h0a84,84,0,0,1-37-8.52,11.5,11.5,0,0,0-2.08-.86c-.25,0,.31.53,1.62,1.72q3.56,3.57,7.13,7.13H275.91l-84.26-84h-.41v84H149.06V259.59h63.29a63.3,63.3,0,0,1,63.27,63.29A64.18,64.18,0,0,1,265,358l23.18,23.19a1.61,1.61,0,0,0,1,.56c.41,0,.56-.47.18-1.23a83.45,83.45,0,0,1-4.29-11,84.43,84.43,0,0,1-3.78-25.05v-1.06a84.39,84.39,0,0,1,84.37-84.36m0,127.09a42.19,42.19,0,0,0,1.67-84.34c-.56,0-1.12,0-1.67,0a42.19,42.19,0,1,0,0,84.38M191.24,344h21.17a21.09,21.09,0,0,0-.07-42.18h-21.1V344m486.31-84.37c1.67,0,3.36.09,5.06.26l.29,0H951.74l-42.18,42.18H825.71l-.53,84.38L783,428.63V302.06H681.54l-.16.1a11,11,0,0,0,3.17,21l40.28,7.12c26.45,4,44.71,28.89,40.92,55.83-3.77,26.77-22,42.52-53.67,42.52H688.61l-42.19-42.19h65.51c5.43,0,9.62-3.53,9.57-9.87,0-5.49-3.44-10.34-8.82-11.22l-40.38-7.07h0c-26.72-2.81-46.07-27.13-43.21-54.31,2.67-25.44,23.87-44.38,48.5-44.38m352.27,0a63.29,63.29,0,0,1,52.64,98.4s0,.05,0,.06l71.37,70.21a0,0,0,0,1,0,.08h-59l-85.73-84h-.4v83.92a.05.05,0,0,1-.05,0H966.58a0,0,0,0,1-.05,0V259.64a.05.05,0,0,1,.05-.05h63.24m-21,84.38h21.11a21.09,21.09,0,0,0,21-21.83c-.38-11.45-10.17-20.36-21.63-20.36h-20.53a.05.05,0,0,0,0,.05v42.09a0,0,0,0,0,0,.05m-48.9-84.38V428.34H917.69V386.15l-.27-24.53-67.57,66.72H789.53l118-116.5,0,0,52.29-52.29m-307,.29h0m434.63,97.55a67.28,67.28,0,0,0-57.72-101.84H966.58a4,4,0,0,0-3.37,1.81,4,4,0,0,0-6.17-.63l-1.6,1.6v0a4,4,0,0,0-3.69-2.47H683a52,52,0,0,0-26.08,4,4,4,0,0,0-4-4H596.66a4,4,0,0,0-2.83,1.17l-17.08,17.08V259.88a4,4,0,0,0-4-4h-8a4.12,4.12,0,0,0-1.49-.29h0l-27.43.29H493a88.4,88.4,0,0,0-63.29,26.7,88.26,88.26,0,0,0-64-27.5h0a88.54,88.54,0,0,0-86,68v-.16a67.37,67.37,0,0,0-67.27-67.29H149.06a4,4,0,0,0-4,4V428.34a4,4,0,0,0,4,4h42.18a4,4,0,0,0,4-4V353.6l77.84,77.58a4,4,0,0,0,2.83,1.16h59.37a4,4,0,0,0,3.69-2.47,3.53,3.53,0,0,0,.27-1,88.54,88.54,0,0,0,90.16-23.2,88.46,88.46,0,0,0,63.54,27h.76l27.46-.29a4,4,0,0,0,4-4V386.15a4,4,0,0,0-4-4h0l-27.13.29h-1a38.19,38.19,0,0,1,0-76.38H494l27.14-.28a3.35,3.35,0,0,0,.71-.07h4V428.63a4,4,0,0,0,4,4h42.89a4,4,0,0,0,4-4V386.25L622,431.46a4,4,0,0,0,2.83,1.17H681a4,4,0,0,0,3.62-2.3l1.13,1.13a4,4,0,0,0,2.83,1.17h23.47c16.51,0,29.91-4.07,39.82-12.11s15.76-19.31,17.81-33.85a53.67,53.67,0,0,0-9.86-39.45,52,52,0,0,0-34.38-20.88l-40.23-7.11-.29-.05a6.91,6.91,0,0,1-5.84-5,7,7,0,0,1,3.38-8.09H779V428.63a4,4,0,0,0,2.47,3.7,4,4,0,0,0,1.53.3,4,4,0,0,0,2.83-1.17l.6-.6a4,4,0,0,0,3.11,1.48h60.32a4,4,0,0,0,2.81-1.15l60.86-60.1.17,15.11v42.14a4,4,0,0,0,4,4h42.18a4,4,0,0,1,6.71,0h42.09a4.05,4.05,0,0,0,4.05-4V353.5l79.33,77.69a4.11,4.11,0,0,0,2.84,1.15h58.91a4,4,0,0,0,3.75-2.51m-569.3-99.64,39.93-39.93a54.36,54.36,0,0,0-3.11,13.3,53.59,53.59,0,0,0,11.36,39.2,51.92,51.92,0,0,0,35.37,19.5l40.19,7c3.23.53,5.48,3.54,5.51,7.31A6.13,6.13,0,0,1,716,381a5.71,5.71,0,0,1-4.1,1.47H646.42a4,4,0,0,0-3.62,2.3l-54.55-54.55Zm424.47-24.41h16.58c9.42,0,17.33,7.4,17.64,16.5A17.12,17.12,0,0,1,1029.87,340h-17.15V305.78Zm-647.1,76.38a38.19,38.19,0,1,1,0-76.38c.51,0,1,0,1.52,0a38.32,38.32,0,0,1,36.64,36.69,38.2,38.2,0,0,1-38.16,39.66ZM195.24,305.78h17.1a17.09,17.09,0,0,1,0,34.18H195.24V305.78Zm634.44.28h78.06l-2.51,2.52a2.86,2.86,0,0,0-.5.42l-75.54,74.56.49-77.5Zm-559.63,51.4a69,69,0,0,0,7.24-17.13c0,1-.05,2.07-.05,3.1v1.06a89.18,89.18,0,0,0,3.09,23.25l-10.28-10.28Z" transform="translate(-17.58 -4.75)"/><path class="cls-1" d="M639.36,614.79q-1.32-3-4.1-3c-1.83,0-3.18,1-4,3s-1.28,5.17-1.28,9.49.42,7.5,1.28,9.52,2.2,3,4,3,3.22-1,4.1-3,1.32-5.19,1.32-9.5S640.24,616.81,639.36,614.79Zm308,0q-1.32-3-4.1-3c-1.83,0-3.18,1-4,3s-1.29,5.17-1.29,9.49.43,7.5,1.29,9.52,2.2,3,4,3,3.22-1,4.1-3,1.32-5.19,1.32-9.5S948.27,616.81,947.39,614.79Zm-122.51,0a3.95,3.95,0,0,0-7.51,0q-1.12,2.73-1.12,9.52t1.14,9.57a3.9,3.9,0,0,0,7.47,0c.76-1.86,1.14-5,1.14-9.55S825.63,616.63,824.88,614.81Zm-185.52,0q-1.32-3-4.1-3c-1.83,0-3.18,1-4,3s-1.28,5.17-1.28,9.49.42,7.5,1.28,9.52,2.2,3,4,3,3.22-1,4.1-3,1.32-5.19,1.32-9.5S640.24,616.81,639.36,614.79Zm-220.47-1.52a4,4,0,0,0-3.72-1.95,4.08,4.08,0,0,0-3.77,2.33,14.46,14.46,0,0,0-1.29,6.85h9.94v-.91Q420.05,615.22,418.89,613.27Zm-43.05,1.61a4,4,0,0,0-7.52,0c-.74,1.82-1.12,5-1.12,9.56s.38,7.7,1.12,9.52a4,4,0,0,0,7.52,0q1.13-2.73,1.12-9.52C377,619.88,376.59,616.7,375.84,614.88Zm-42.71-.09q-1.32-3-4.11-3t-4,3q-1.29,3-1.29,9.49t1.29,9.52q1.28,3,4,3t4.11-3c.87-2,1.31-5.19,1.31-9.5S334,616.81,333.13,614.79Zm614.26,0q-1.32-3-4.1-3c-1.83,0-3.18,1-4,3s-1.29,5.17-1.29,9.49.43,7.5,1.29,9.52,2.2,3,4,3,3.22-1,4.1-3,1.32-5.19,1.32-9.5S948.27,616.81,947.39,614.79Zm-126.27-2.71a3.85,3.85,0,0,0-3.75,2.73q-1.12,2.73-1.12,9.52t1.14,9.57a3.9,3.9,0,0,0,7.47,0c.76-1.86,1.14-5,1.14-9.55s-.37-7.7-1.12-9.52A3.86,3.86,0,0,0,821.12,612.08Zm-185.86-.33c-1.83,0-3.18,1-4,3s-1.28,5.17-1.28,9.49.42,7.5,1.28,9.52,2.2,3,4,3,3.22-1,4.1-3,1.32-5.19,1.32-9.5-.44-7.45-1.32-9.47S637.11,611.75,635.26,611.75Zm-220.09-.43a4.08,4.08,0,0,0-3.77,2.33,14.46,14.46,0,0,0-1.29,6.85h9.94v-.91q0-4.37-1.16-6.32A4,4,0,0,0,415.17,611.32Zm-43.09.83a3.87,3.87,0,0,0-3.76,2.73c-.74,1.82-1.12,5-1.12,9.56s.38,7.7,1.12,9.52a4,4,0,0,0,7.52,0q1.13-2.73,1.12-9.52c0-4.56-.37-7.74-1.12-9.56A3.87,3.87,0,0,0,372.08,612.15Zm-43.06-.4q-2.75,0-4,3t-1.29,9.49q0,6.5,1.29,9.52t4,3q2.79,0,4.11-3c.87-2,1.31-5.19,1.31-9.5s-.44-7.45-1.31-9.47S330.88,611.75,329,611.75Zm618.37,3q-1.32-3-4.1-3c-1.83,0-3.18,1-4,3s-1.29,5.17-1.29,9.49.43,7.5,1.29,9.52,2.2,3,4,3,3.22-1,4.1-3,1.32-5.19,1.32-9.5S948.27,616.81,947.39,614.79Zm-122.51,0a3.95,3.95,0,0,0-7.51,0q-1.12,2.73-1.12,9.52t1.14,9.57a3.9,3.9,0,0,0,7.47,0c.76-1.86,1.14-5,1.14-9.55S825.63,616.63,824.88,614.81Zm-449,.07a4,4,0,0,0-7.52,0c-.74,1.82-1.12,5-1.12,9.56s.38,7.7,1.12,9.52a4,4,0,0,0,7.52,0q1.13-2.73,1.12-9.52C377,619.88,376.59,616.7,375.84,614.88Zm-42.71-.09q-1.32-3-4.11-3t-4,3q-1.29,3-1.29,9.49t1.29,9.52q1.28,3,4,3t4.11-3c.87-2,1.31-5.19,1.31-9.5S334,616.81,333.13,614.79Zm85.76-1.52a4,4,0,0,0-3.72-1.95,4.08,4.08,0,0,0-3.77,2.33,14.46,14.46,0,0,0-1.29,6.85h9.94v-.91Q420.05,615.22,418.89,613.27Zm605.19-36.37H264.89a9.52,9.52,0,0,0-9.5,9.5v62.38a9.52,9.52,0,0,0,9.5,9.5h759.19a9.52,9.52,0,0,0,9.5-9.5V586.4A9.52,9.52,0,0,0,1024.08,576.9ZM299.16,613.63a6.33,6.33,0,0,0-1.77-1.26,4.23,4.23,0,0,0-1.81-.4q-2.82,0-4.21,3.18T290,624.72q0,5.89,1.36,8.79a4.37,4.37,0,0,0,4.1,2.89,4.94,4.94,0,0,0,1.89-.38,6.68,6.68,0,0,0,1.83-1.18v6.69a14.28,14.28,0,0,1-2.68,1,10.73,10.73,0,0,1-2.67.33,8.46,8.46,0,0,1-7.89-4.47q-2.55-4.46-2.55-13.92,0-9.08,2.56-13.75a8.15,8.15,0,0,1,7.52-4.68,12.3,12.3,0,0,1,2.93.34,13.2,13.2,0,0,1,2.78,1Zm38.74,24.43a10.73,10.73,0,0,1-17.75,0q-3-4.69-3-13.73t3-13.64a10.76,10.76,0,0,1,17.75,0q3,4.68,3.05,13.64T337.9,638.06Zm45.35,4h-6.51v-3.46a9,9,0,0,1-3.05,3.12,7.79,7.79,0,0,1-4,1,7.26,7.26,0,0,1-6.9-4.47q-2.2-4.45-2.2-13.85t2.2-13.9a7.26,7.26,0,0,1,6.9-4.46,8,8,0,0,1,4,1,8.61,8.61,0,0,1,3,3.07v-24h6.51Zm43.09-16.51H410.11v1c0,3.71.43,6.4,1.27,8.08a4.21,4.21,0,0,0,4,2.51,3.74,3.74,0,0,0,3.34-1.74,10.12,10.12,0,0,0,1.25-5.2l6,0v.47q0,5.61-2.82,8.82a9.73,9.73,0,0,1-7.7,3.22q-6,0-8.72-4.43T404,624.18q0-9.13,2.77-13.66A9.14,9.14,0,0,1,415.1,606q6,0,8.6,4.1t2.64,13.42Zm45.1-13.76-7.1,30.27h-4.59l-3.18-17.41c-.14-.92-.29-2-.45-3.2s-.32-2.68-.49-4.39q-.21,2.28-.45,4.23c-.16,1.3-.33,2.43-.52,3.39l-3.18,17.38h-4.59l-8.2-35.44h6.36l3.39,18.17c.17,1,.33,2,.47,3.22s.32,2.63.51,4.33c.17-1.73.33-3.2.49-4.4s.3-2.24.45-3.11l3.18-18.21h4.23L461,624.87c.24,1.25.51,3.53.83,6.83,0,.29,0,.52.07.68.12-1.44.26-2.81.43-4.11s.35-2.44.55-3.4l2.91-16,.41-2.22h6.43Zm23.5,30.27h-6.51V606.66h6.51ZM494.59,599a4.18,4.18,0,0,1-5.87,0,4,4,0,0,1-1.19-3,4.17,4.17,0,0,1,1.19-3,4,4,0,0,1,3-1.23,3.91,3.91,0,0,1,2.93,1.23,4.13,4.13,0,0,1,1.19,3A4,4,0,0,1,494.59,599Zm27.29,43.08h-6.5V611.46h-3.55v-4.8h3.55v-9.61h6.5v9.61h4.88v4.8h-4.88Zm45.76,0H561.1V618.29c0-2.41-.31-4-.93-4.91a3.75,3.75,0,0,0-3.26-1.3,4,4,0,0,0-3.27,1.35,6.33,6.33,0,0,0-1.1,4V642.1H546v-56h6.5v24.1a7.5,7.5,0,0,1,3-2.91,9.32,9.32,0,0,1,4.43-1q3.9,0,5.8,2.17t1.89,6.61Zm37.64-29.23H604.2c-2.53,0-4.39.64-5.57,1.9s-1.77,3.25-1.77,5.94V642.1h-6.43V606.66h6.29v5.17a10.29,10.29,0,0,1,3.43-4.25,9.73,9.73,0,0,1,5.13-1.57Zm38.85,25.19a10.72,10.72,0,0,1-17.74,0q-3.06-4.69-3.06-13.73t3.06-13.64a10.75,10.75,0,0,1,17.74,0q3,4.68,3,13.64T644.13,638.06Zm38-24.43a6.33,6.33,0,0,0-1.77-1.26,4.23,4.23,0,0,0-1.81-.4q-2.82,0-4.21,3.18c-.92,2.12-1.39,5.31-1.39,9.57q0,5.89,1.36,8.79a4.37,4.37,0,0,0,4.1,2.89,5,5,0,0,0,1.9-.38,6.79,6.79,0,0,0,1.82-1.18v6.69a14.46,14.46,0,0,1-2.67,1,10.87,10.87,0,0,1-2.68.33,8.46,8.46,0,0,1-7.89-4.47q-2.55-4.46-2.55-13.92,0-9.08,2.57-13.75a8.12,8.12,0,0,1,7.51-4.68,12.3,12.3,0,0,1,2.93.34,13.2,13.2,0,0,1,2.78,1Zm36.3,28.47-9.76-18.64V642.1h-6.5v-56h6.5v36.31l9.4-15.75h7L715.3,623l10.22,19.15Zm40.89-8.28c0,.23,0,.45-.07.67a2.7,2.7,0,0,1-.06.41,2,2,0,0,1,0,.24c0,.12,0,.24-.07.36l-.06.26c-.06.25-.13.5-.21.74s-.19.55-.3.81-.25.52-.38.77v0c-.11.17-.2.35-.31.51l0,.06-.2.28,0,0a5.9,5.9,0,0,1-.37.47,8,8,0,0,1-.56.6,10,10,0,0,1-7.34,2.7,14.48,14.48,0,0,1-3-.33l-.81-.19c-.24-.06-.48-.13-.71-.21l-.66-.21-.3-.1c-.23-.09-.47-.17-.7-.27v-6.82l.44.37c.27.2.53.4.79.57l.39.26h0l0,0,.06,0a1.74,1.74,0,0,0,.26.15,1.29,1.29,0,0,0,.16.09c.19.1.37.19.56.27a6.81,6.81,0,0,0,2.77.6,4.7,4.7,0,0,0,3.36-1.23,4.11,4.11,0,0,0,1.3-3.14,2.8,2.8,0,0,0,0-.4.25.25,0,0,0,0-.08,2.74,2.74,0,0,0-.08-.37v0a2.58,2.58,0,0,0-.08-.26,4.94,4.94,0,0,0-.19-.49l-.26-.52a11.13,11.13,0,0,0-.71-1.09l0,0c-.14-.18-.28-.36-.44-.54s-.33-.4-.52-.6-.37-.4-.58-.61l-.32-.32-.33-.32a9.74,9.74,0,0,0-.72-.69,24.88,24.88,0,0,1-4.66-5.46,9.65,9.65,0,0,1-1.19-4.77,10,10,0,0,1,2.74-7.3,9.54,9.54,0,0,1,7.12-2.81,11.34,11.34,0,0,1,2.84.36,12.93,12.93,0,0,1,2.76,1.08v6.69a6.29,6.29,0,0,0-5.17-2.39,4.1,4.1,0,0,0-3,1.16,3.93,3.93,0,0,0-1.17,2.92q0,2.36,3.43,5.5c.46.41.8.72,1,.94a21.08,21.08,0,0,1,4.47,5.34q.14.26.24.51a3.38,3.38,0,0,1,.22.52,1.83,1.83,0,0,1,.08.25,1.17,1.17,0,0,1,.09.24h0a3.73,3.73,0,0,1,.14.44.06.06,0,0,1,0,.07h0l0,0a.49.49,0,0,1,0,.16h0a.31.31,0,0,1,0,.08.11.11,0,0,1,0,.05.47.47,0,0,1,0,.16.24.24,0,0,1,0,.08,3.58,3.58,0,0,1,.09.45c0,.15.06.31.08.47.05.34.08.69.1,1s0,.46,0,.7S759.39,633.51,759.37,633.82Zm32.5-22.36h-.61L787,613.7v28.4h-6.5V611.46H777v-4.8h3.54v-9.61H787v9.61h4.88Zm40.42,30.64h-6.5v-3.46a9.06,9.06,0,0,1-3.06,3.12,7.75,7.75,0,0,1-4,1q-4.49,0-6.8-4.67t-2.31-13.76c0-1.13,0-2.21.08-3.23,0-.69.08-1.35.15-2,0-.17,0-.34.05-.51l.09-.8c0-.12,0-.23.05-.35a.09.09,0,0,1,0-.05c0-.34.09-.68.15-1,0-.11,0-.22.06-.33.05-.3.11-.59.17-.88s.15-.69.24-1l.12-.46a.9.9,0,0,1,.06-.22l.08-.29c.06-.18.11-.35.18-.53a.74.74,0,0,1,0-.14h0c0-.08,0-.15.07-.23a1.08,1.08,0,0,1,.08-.19c.07-.2.14-.39.22-.57a.61.61,0,0,1,0-.12c.11-.26.22-.51.34-.75,1.53-3.09,3.79-4.64,6.81-4.64a8,8,0,0,1,4,1,8.79,8.79,0,0,1,3,3.07v-3.39h6.5Zm37.53-29.23h-1.09c-2.53,0-4.38.64-5.56,1.9s-1.77,3.25-1.77,5.94V642.1H855V606.66h6.28v5.17a10.31,10.31,0,0,1,3.44-4.25,9.67,9.67,0,0,1,5.13-1.57Zm17,28.78a4.2,4.2,0,0,1-5.84,0,3.91,3.91,0,0,1-1.17-2.87,4.05,4.05,0,0,1,1.17-2.94,3.9,3.9,0,0,1,2.91-1.21,4.13,4.13,0,0,1,4.12,4.15A3.89,3.89,0,0,1,886.83,641.65Zm28.07-28a6.33,6.33,0,0,0-1.77-1.26,4.23,4.23,0,0,0-1.81-.4q-2.82,0-4.21,3.18c-.92,2.12-1.39,5.31-1.39,9.57q0,5.89,1.36,8.79a4.37,4.37,0,0,0,4.1,2.89,5,5,0,0,0,1.9-.38,6.79,6.79,0,0,0,1.82-1.18v6.69a14.46,14.46,0,0,1-2.67,1,10.87,10.87,0,0,1-2.68.33,8.47,8.47,0,0,1-7.89-4.47q-2.55-4.46-2.55-13.92,0-9.08,2.57-13.75a8.13,8.13,0,0,1,7.51-4.68,12.3,12.3,0,0,1,2.93.34,13.2,13.2,0,0,1,2.78,1Zm37.26,24.43a10.72,10.72,0,0,1-17.74,0q-3.06-4.69-3.06-13.73t3.06-13.64a10.75,10.75,0,0,1,17.74,0q3,4.68,3.05,13.64T952.16,638.06Zm57.64,4h-6.51V618.29c0-2.41-.31-4-.94-4.91a3.77,3.77,0,0,0-3.29-1.3,4,4,0,0,0-3.25,1.35,6.27,6.27,0,0,0-1.12,4V642.1h-6.43V618.29c0-2.36-.31-4-.94-4.87a3.6,3.6,0,0,0-3.18-1.34,3.78,3.78,0,0,0-3.16,1.35,6.46,6.46,0,0,0-1.07,4V642.1h-6.5V606.66h6.43v3.54a8.18,8.18,0,0,1,3-2.93,8.74,8.74,0,0,1,4.22-1,7.84,7.84,0,0,1,4.11,1,9.08,9.08,0,0,1,3,3.27,9.59,9.59,0,0,1,3.4-3.24,9.11,9.11,0,0,1,4.44-1.06q3.9,0,5.8,2.17c1.26,1.44,1.9,3.64,1.9,6.61Z" transform="translate(-17.58 -4.75)"/></svg>